<svg width="10" height="10" viewBox="0 0 10 10" fill="none" xmlns="http://www.w3.org/2000/svg">
<path d="M5 0C4.01109 0 3.0444 0.293245 2.22215 0.842652C1.3999 1.39206 0.759043 2.17295 0.380604 3.08658C0.00216634 4.00021 -0.0968502 5.00555 0.0960759 5.97545C0.289002 6.94536 0.765206 7.83627 1.46447 8.53553C2.16373 9.23479 3.05464 9.711 4.02455 9.90392C4.99445 10.0969 5.99979 9.99783 6.91342 9.6194C7.82705 9.24096 8.60794 8.60009 9.15735 7.77785C9.70676 6.9556 10 5.98891 10 5C9.99741 3.67471 9.46979 2.40445 8.53267 1.46733C7.59555 0.530207 6.32529 0.00259099 5 0ZM5 9.41176C4.12744 9.41176 3.27447 9.15302 2.54896 8.66825C1.82345 8.18348 1.25798 7.49445 0.924063 6.68831C0.590147 5.88216 0.502779 4.9951 0.673008 4.13931C0.843237 3.28351 1.26342 2.49741 1.88041 1.88041C2.49741 1.26341 3.28351 0.843235 4.13931 0.673006C4.99511 0.502777 5.88217 0.590145 6.68831 0.924061C7.49445 1.25798 8.18348 1.82344 8.66825 2.54895C9.15302 3.27447 9.41177 4.12743 9.41177 5C9.41047 6.16967 8.94524 7.29107 8.11816 8.11815C7.29107 8.94524 6.16968 9.41047 5 9.41176ZM3.33333 5C3.33333 5.3498 3.4434 5.69074 3.64793 5.97452C3.85247 6.25829 4.1411 6.47052 4.47295 6.58114C4.80481 6.69176 5.16305 6.69515 5.49695 6.59085C5.83084 6.48655 6.12345 6.27984 6.33333 6C6.38014 5.93759 6.44981 5.89634 6.52703 5.88531C6.60425 5.87428 6.6827 5.89437 6.7451 5.94117C6.8075 5.98798 6.84876 6.05765 6.85979 6.13487C6.87082 6.2121 6.85073 6.29054 6.80392 6.35294C6.51996 6.73155 6.12408 7.01122 5.67234 7.15233C5.2206 7.29345 4.73592 7.28885 4.28694 7.13919C3.83796 6.98953 3.44745 6.70239 3.17073 6.31846C2.89401 5.93453 2.7451 5.47326 2.7451 5C2.7451 4.52673 2.89401 4.06547 3.17073 3.68153C3.44745 3.2976 3.83796 3.01047 4.28694 2.86081C4.73592 2.71115 5.2206 2.70655 5.67234 2.84766C6.12408 2.98878 6.51996 3.26845 6.80392 3.64706C6.8271 3.67796 6.84396 3.71312 6.85354 3.75053C6.86313 3.78795 6.86525 3.82689 6.85979 3.86512C6.85433 3.90336 6.84139 3.94014 6.82171 3.97338C6.80203 4.00661 6.776 4.03565 6.7451 4.05882C6.7142 4.082 6.67904 4.09886 6.64162 4.10844C6.60421 4.11803 6.56527 4.12015 6.52703 4.11469C6.4888 4.10923 6.45201 4.09629 6.41878 4.07661C6.38554 4.05693 6.35651 4.0309 6.33333 4C6.12345 3.72016 5.83084 3.51344 5.49695 3.40914C5.16305 3.30484 4.80481 3.30824 4.47295 3.41886C4.1411 3.52948 3.85247 3.74171 3.64793 4.02548C3.4434 4.30926 3.33333 4.65019 3.33333 5Z" fill="#757575"/>
</svg>
